<svg width="13" height="13" viewBox="0 0 13 13" fill="none" xmlns="http://www.w3.org/2000/svg">
<ellipse cx="6.5" cy="6.50004" rx="6.5" ry="6.50004" fill="#E6C8B4"/>
<path d="M7.10156 9H6.375V4.18359L4.91797 4.71875V4.0625L6.98828 3.28516H7.10156V9Z" fill="#1B1A17"/>
<path d="M7.10156 9V10H8.10156V9H7.10156ZM6.375 9H5.375V10H6.375V9ZM6.375 4.18359H7.375V2.75098L6.03023 3.24491L6.375 4.18359ZM4.91797 4.71875H3.91797V6.15136L5.26274 5.65744L4.91797 4.71875ZM4.91797 4.0625L4.56646 3.12632L3.91797 3.36981V4.0625H4.91797ZM6.98828 3.28516V2.28516H6.80673L6.63677 2.34897L6.98828 3.28516ZM7.10156 3.28516H8.10156V2.28516H7.10156V3.28516ZM7.10156 8H6.375V10H7.10156V8ZM7.375 9V4.18359H5.375V9H7.375ZM6.03023 3.24491L4.5732 3.78006L5.26274 5.65744L6.71977 5.12228L6.03023 3.24491ZM5.91797 4.71875V4.0625H3.91797V4.71875H5.91797ZM5.26948 4.99868L7.33979 4.22134L6.63677 2.34897L4.56646 3.12632L5.26948 4.99868ZM6.98828 4.28516H7.10156V2.28516H6.98828V4.28516ZM6.10156 3.28516V9H8.10156V3.28516H6.10156Z" fill="#1B1A17"/>
</svg>
